<?xml version="1.0" encoding="UTF-8" standalone="no"?>
<!-- Created with Inkscape (http://www.inkscape.org/) -->

<svg
   width="117.50625mm"
   height="85.700745mm"
   viewBox="0 0 117.50625 85.700745"
   version="1.1"
   id="svg1"
   xml:space="preserve"
   inkscape:version="1.4.2 (f4327f4, 2025-05-13)"
   sodipodi:docname="colab_icon.svg.svg"
   xmlns:inkscape="http://www.inkscape.org/namespaces/inkscape"
   xmlns:sodipodi="http://sodipodi.sourceforge.net/DTD/sodipodi-0.dtd"
   xmlns="http://www.w3.org/2000/svg"
   xmlns:svg="http://www.w3.org/2000/svg"><sodipodi:namedview
     id="namedview1"
     pagecolor="#ffffff"
     bordercolor="#000000"
     borderopacity="0.25"
     inkscape:showpageshadow="2"
     inkscape:pageopacity="0.0"
     inkscape:pagecheckerboard="0"
     inkscape:deskcolor="#d1d1d1"
     inkscape:document-units="mm"
     inkscape:zoom="1.3772587"
     inkscape:cx="313.30352"
     inkscape:cy="265.38224"
     inkscape:window-width="1920"
     inkscape:window-height="991"
     inkscape:window-x="-9"
     inkscape:window-y="-9"
     inkscape:window-maximized="1"
     inkscape:current-layer="layer1" /><defs
     id="defs1" /><g
     inkscape:label="Capa 1"
     inkscape:groupmode="layer"
     id="layer1"
     transform="translate(-60.810481,-19.899073)"><path
       style="fill:#000000;stroke-width:0.977584"
       d="m 62.127504,89.239264 c 0,-9.197626 0.111432,-16.411588 0.276675,-17.911671 2.913889,-26.45242 24.164208,-47.333453 51.133501,-50.244913 4.15083,-0.448104 11.73113,-0.19537 15.83944,0.528091 24.28341,4.276274 42.60394,22.530892 46.9862,46.817172 0.38147,2.114103 0.45686,4.81371 0.5399,19.334271 l 0.0965,16.877066 h -5.18834 -5.18834 l -2.2e-4,-14.161221 c -2.6e-4,-17.613108 -0.29467,-21.036157 -2.34689,-27.28757 -0.98057,-2.986968 -3.65947,-8.486835 -5.40107,-11.088547 -7.03026,-10.502281 -17.79405,-17.618856 -30.53237,-20.186724 -2.58528,-0.52116 -3.73601,-0.599621 -8.79418,-0.599621 -5.05816,0 -6.2089,0.0785 -8.79418,0.599621 -13.295036,2.680095 -24.437013,10.313274 -31.389223,21.504204 -0.660537,1.063259 -1.200976,2.037529 -1.200976,2.165035 0,0.127516 0.494673,-0.173345 1.099273,-0.66857 4.885762,-4.001886 12.451559,-7.489601 19.592913,-9.032033 2.378943,-0.513818 3.469903,-0.587753 8.794183,-0.595945 5.33989,-0.0078 6.43448,0.06286 9.00985,0.584576 17.3596,3.517063 31.23324,16.381234 35.48341,32.901559 1.21115,4.707692 1.32531,5.961189 1.46636,16.101108 l 0.13583,9.764128 h -5.31085 -5.31083 l -0.10809,-9.764128 c -0.11596,-10.475758 -0.16634,-10.951001 -1.65056,-15.570456 -3.2535,-10.126155 -11.86774,-18.62517 -22.4246,-22.124666 -4.14279,-1.37329 -7.20989,-1.774794 -12.28393,-1.608028 -5.64949,0.185683 -9.294224,1.013471 -13.965955,3.171947 -5.405975,2.497717 -11.187944,7.538921 -14.497416,12.64007 -1.00865,1.55471 -1.789957,2.870695 -1.736238,2.924413 0.05372,0.05367 1.128745,-0.493543 2.388946,-1.216124 2.720451,-1.559882 5.54998,-2.689411 8.820618,-3.521149 15.479625,-3.936535 31.800595,3.583939 38.747565,17.854345 2.23818,4.597645 3.10547,8.153176 3.3945,13.915956 l 0.1654,3.29782 h -5.30564 -5.30565 l -0.14706,-3.42715 C 118.98658,95.866843 117.7006,92.196846 114.6282,88.119462 105.98819,76.653303 88.794703,75.721265 78.933353,86.184481 74.792059,90.578535 72.86929,95.25598 72.543251,101.72943 l -0.146555,2.90985 h -5.134582 -5.13461 z"
       id="path1" /></g></svg>
